<?xml version="1.0" encoding="utf-8"?>
<!-- Generator: Adobe Illustrator 23.1.0, SVG Export Plug-In . SVG Version: 6.00 Build 0)  -->
<svg version="1.1" id="Слой_1" xmlns="http://www.w3.org/2000/svg" xmlns:xlink="http://www.w3.org/1999/xlink" x="0px" y="0px"
	 viewBox="0 0 193.2 144.3" style="enable-background:new 0 0 193.2 144.3;" xml:space="preserve">
<style type="text/css">
	.st0{fill:#3B3A39;}
	.st1{fill:#FFFFFF;}
	.st2{fill:none;stroke:#3B3A39;stroke-width:2.4041;stroke-miterlimit:10;}
	.st3{fill:#1C989E;}
	.st4{fill:#DFB007;}
	.st5{fill:#59C0D0;}
	.st6{fill:#F6C30B;}
	.st7{fill:none;stroke:#3B3A39;stroke-width:2.4041;stroke-linecap:round;stroke-linejoin:round;stroke-miterlimit:10;}
	.st8{fill:#F5C3A6;}
	.st9{fill:none;stroke:#3B3A39;stroke-width:1.803;stroke-miterlimit:10;}
	.st10{fill:#914B00;}
	.st11{fill:#A9662D;}
	.st12{fill:none;stroke:#3B3A39;stroke-width:1.2021;stroke-miterlimit:10;}
	.st13{fill-rule:evenodd;clip-rule:evenodd;fill:#3B3A39;}
</style>
<g>
	<path class="st0" d="M177.5,99.4v6h3c1.4,0,2.3-0.2,2.9-0.5c0.8-0.5,1.2-1.3,1.2-2.5c0-2-1.4-3-4.1-3H177.5z M177.5,110.9v7.3h3.5
		c1.5,0,2.6-0.2,3.3-0.6c1-0.5,1.4-1.5,1.4-2.9c0-1.6-0.5-2.7-1.4-3.2c-0.7-0.4-1.8-0.6-3.5-0.6H177.5z M175.3,124.2
		c-1.8,0-3-0.3-3.7-0.9c-0.7-0.6-1.1-1.8-1.1-3.5V98.3c0-1.8,0.4-3.1,1.1-3.8c0.7-0.7,2-1.1,3.8-1.1h5.7c2.8,0,5.1,0.6,7.1,1.7
		c2.4,1.4,3.5,3.4,3.5,6c0,3.3-1.2,5.6-3.6,6.8v0.1c1.8,0.6,3.1,1.4,3.9,2.5c0.8,1.1,1.2,2.6,1.2,4.5c0,3.1-1.1,5.5-3.3,7.1
		c-1.9,1.4-4.5,2.2-7.7,2.2H175.3z M139.4,108.9c0,2.5,0.6,4.6,1.7,6.3c1.3,1.9,3.2,2.9,5.6,2.9c2.4,0,4.3-1,5.6-2.9
		c1.2-1.7,1.7-3.8,1.7-6.3c0-2.6-0.5-4.8-1.6-6.4c-1.3-2-3.2-3-5.7-3c-2.5,0-4.4,1-5.7,3C140,104.1,139.4,106.3,139.4,108.9z
		 M132,108.8c0-4.6,1.3-8.4,3.9-11.3c2.7-3,6.3-4.6,10.8-4.6c4.6,0,8.2,1.5,10.9,4.5c2.6,2.9,3.9,6.7,3.9,11.3
		c0,4.6-1.3,8.4-3.9,11.3c-2.7,3-6.3,4.5-10.9,4.5c-4.6,0-8.2-1.5-10.8-4.5C133.3,117.2,132,113.4,132,108.8z M116,99.2h-7.5
		c-1,0-1.6,0.6-1.6,1.9v17.2c0,4.2-2.1,6.2-6.2,6.2c-3.7,0-5.6-1.1-5.6-3.2c0-1.3,0.4-2.2,1.1-2.6c0.4-0.3,1.2-0.4,2.2-0.4
		c1,0,1.6-0.2,1.9-0.5c0.3-0.3,0.4-0.9,0.4-1.9v-14.9c0-3,0.5-5.1,1.6-6.3c1.1-1.2,3.1-1.8,6.1-1.8h11c2.3,0,3.5,1.7,3.5,5v21.6
		c0,3.3-1.2,5-3.5,5c-1.5,0-2.4-0.5-3-1.5c-0.4-0.7-0.5-1.9-0.5-3.5V99.2z M75,100.6l-3.5,10.8h7L75,100.6L75,100.6z M75.2,93
		c2.5,0,4.2,1.4,5.2,4l7.8,22.1c0.3,1,0.5,1.7,0.5,2.2c0,0.9-0.3,1.7-1,2.3c-0.7,0.6-1.5,0.9-2.4,0.9c-1.8,0-3-1.1-3.7-3.3l-1.1-3.6
		H69.5l-1.3,3.9c-0.7,2-1.8,3.1-3.4,3.1c-1,0-1.8-0.3-2.4-0.9c-0.6-0.6-0.9-1.4-0.9-2.4c0-0.7,0.1-1.4,0.3-2l8-21.7
		C71,94.5,72.8,93,75.2,93z M32.3,119.6V98c0-3.3,1.2-5,3.5-5c2.3,0,3.5,1.7,3.5,5v6.7l8.9-9.2c1.6-1.7,2.9-2.5,3.8-2.5
		c0.9,0,1.7,0.3,2.4,1c0.7,0.6,1.1,1.4,1.1,2.3c0,0.6-0.3,1.4-1,2.2c0,0-0.6,0.6-1.8,1.8l-7.1,7l9.4,10.6c1.2,1.3,1.8,2.5,1.8,3.4
		c0,0.8-0.3,1.6-1,2.3c-0.7,0.7-1.4,1-2.3,1c-1.1,0-2.4-0.8-3.8-2.4l-9.3-10.8l-1.2,1v7.2c0,3.3-1.2,5-3.5,5
		C33.5,124.5,32.3,122.9,32.3,119.6z M11.3,107.6h3.5v-9.6c0-3.3,1.2-4.9,3.5-4.9c2.3,0,3.5,1.6,3.5,4.9v21.6c0,3.3-1.2,5-3.5,5
		c-2.3,0-3.5-1.7-3.5-5v-5.8h-4.7c-3.3,0-5.8-0.9-7.5-2.7c-1.7-1.8-2.6-4.3-2.6-7.7v-5.5C0,94.6,1.2,93,3.5,93C5.8,93,7,94.6,7,97.9
		v5.5c0,1.6,0.3,2.7,0.9,3.3C8.5,107.3,9.7,107.6,11.3,107.6z"/>
	<path class="st0" d="M140.5,140.6c-1.1,0-1.9-0.6-1.9-1.5c0-0.9,0.7-1.5,1.9-1.5h2.2v3H140.5z M137.5,144.1h1l2.1-2.8h2.1v2.8h0.8
		v-7.2h-3.1c-0.9,0-1.7,0.3-2.1,0.7c-0.4,0.3-0.5,0.9-0.5,1.4c0,1.2,0.8,1.9,2,2.1L137.5,144.1z M128.1,144.1h0.8l4.3-6v6h0.8v-7.2
		h-0.8l-4.3,6v-6h-0.8V144.1z M120.8,142.8v-4.7c1.8,0,2.8,0.8,2.8,2.4C123.6,142,122.6,142.8,120.8,142.8z M120,142.8
		c-1.8,0-2.8-0.8-2.8-2.4c0-1.5,1-2.4,2.8-2.4V142.8z M120,144.3h0.8v-0.8c2.3,0,3.6-1.2,3.6-3.1c0-1.9-1.3-3.1-3.6-3.1v-0.7H120
		v0.7c-2.3,0-3.6,1.2-3.6,3.1c0,1.9,1.3,3.1,3.6,3.1V144.3z M108,141.4l1.6-3.7l1.6,3.7H108z M106,144.1h0.8l0.9-1.9h3.9l0.8,1.9
		h0.9l-3.3-7.2h-0.8L106,144.1z M98.5,140.8v-3.2h1.8c1.2,0,1.9,0.5,1.9,1.6c0,1-0.8,1.6-2,1.6H98.5z M97.7,144.1h0.8v-2.5h1.7
		c1.5,0,2.8-0.8,2.8-2.4c0-1.4-1.1-2.3-2.7-2.3h-2.7V144.1z M89.5,144.1h0.8v-6.4h3.8v-0.7h-4.6V144.1z M82.1,143.4
		c-1.6,0-2.8-1.3-2.8-3c0-1.7,1.2-3,2.8-3c1.6,0,2.8,1.3,2.8,3C84.9,142.1,83.7,143.4,82.1,143.4z M82,144.2c2.2,0,3.7-1.7,3.7-3.7
		c0-2-1.5-3.7-3.7-3.7c-2.2,0-3.7,1.7-3.7,3.7C78.4,142.5,79.9,144.2,82,144.2z M68.9,144.1h0.8v-6.4h4v6.4h0.8v-7.2h-5.7V144.1z
		 M58.9,144.1h0.8l4.3-6v6h0.8v-7.2H64l-4.3,6v-6h-0.8V144.1z M52.1,144.1h0.8v-6.4h2.4v-0.7h-5.6v0.7h2.4V144.1z"/>
	<path class="st1" d="M55.6,57.5l102.9-14.1c0.5-0.1,0.7-0.8,0.2-1L128,22.6c-0.1-0.1-0.3-0.1-0.5-0.1l-24.2,6.3
		c-0.6,0.2-0.6,1,0,1.1l33.8,7.9c0.7,0.2,0.5,1.1-0.1,1.1l-61.2-1.2c-0.1,0-0.3,0.1-0.4,0.2L55.2,56.5
		C54.7,56.9,55.1,57.6,55.6,57.5"/>
	<path class="st2" d="M55.6,57.5l102.9-14.1c0.5-0.1,0.7-0.8,0.2-1L128,22.6c-0.1-0.1-0.3-0.1-0.5-0.1l-24.2,6.3
		c-0.6,0.2-0.6,1,0,1.1l33.8,7.9c0.7,0.2,0.5,1.1-0.1,1.1l-61.2-1.2c-0.1,0-0.3,0.1-0.4,0.2L55.2,56.6
		C54.7,56.9,55.1,57.6,55.6,57.5z"/>
	<path class="st3" d="M91.5,37.8c0,0,2-6,6.4-7.4c4.4-1.4,20.9-3.7,20.9-3.7c1.7,0.8,4.7,2.7,7.1,6.1c1.6,2.2,2.3,4.3,2.8,5.9
		C116.2,38.3,103.9,38,91.5,37.8"/>
	<path class="st4" d="M91.5,37.8c0,0,2-6,6.4-7.4c4.4-1.4,20.9-3.7,20.9-3.7c1.7,0.8,4.7,2.7,7.1,6.1c1.6,2.2,2.3,4.3,2.8,5.9
		C116.2,38.3,103.9,38,91.5,37.8z"/>
	<path class="st2" d="M91.5,37.8c0,0,2-6,6.4-7.4c4.4-1.4,20.9-3.7,20.9-3.7c1.7,0.8,4.7,2.7,7.1,6.1c1.6,2.2,2.3,4.3,2.8,5.9
		C116.2,38.3,103.9,38,91.5,37.8z"/>
	<path class="st5" d="M90.8,75.5l68.1-31.8c0.2-0.1,0.1-0.4-0.1-0.4l-80,11l9.6,20.3C88.8,75.6,89.9,76,90.8,75.5"/>
	<path class="st6" d="M90.8,75.5l68.1-31.8c0.2-0.1,0.1-0.4-0.1-0.4l-80,11l9.6,20.3C88.8,75.6,89.9,76,90.8,75.5z"/>
	<path class="st2" d="M90.8,75.5l68.1-31.8c0.2-0.1,0.1-0.4-0.1-0.4l-80,11l9.6,20.3C88.8,75.6,89.9,76,90.8,75.5z"/>
	<line class="st7" x1="57.9" y1="73.6" x2="65.1" y2="72.2"/>
	<line class="st7" x1="69.9" y1="71.1" x2="85.2" y2="67.9"/>
	<line class="st7" x1="34.2" y1="52.5" x2="41.4" y2="51.1"/>
	<line class="st7" x1="47" y1="50.1" x2="66" y2="46.5"/>
	<line class="st7" x1="57.7" y1="31.9" x2="73.2" y2="28.9"/>
	<line class="st7" x1="68.5" y1="15.8" x2="92.2" y2="11.2"/>
	<line class="st7" x1="59.6" y1="17.6" x2="64.6" y2="16.6"/>
	<path class="st8" d="M119.2,22.9c0,6.6-5.4,12-12,12c-6.6,0-12-5.4-12-12c0-6.6,5.4-12,12-12C113.8,10.9,119.2,16.3,119.2,22.9"/>
	<path class="st9" d="M119.2,22.9c0,6.6-5.4,12-12,12c-6.6,0-12-5.4-12-12c0-6.6,5.4-12,12-12C113.8,10.9,119.2,16.3,119.2,22.9z"/>
	<path class="st10" d="M99.7,21.3c0,0-4.3,6.7-10.7,8.2c-4.8,1.1-8.2-1.6-9.7-3.2c-0.6-0.6-1.1-1.6-1.1-2.4c0-1.4,0.3-2.9,3.7-1
		c5.1,2.8,7.8,0.4,8.8-1.6H99.7z"/>
	<path class="st2" d="M99.7,21.3c0,0-4.3,6.7-10.7,8.2c-4.8,1.1-8.2-1.6-9.7-3.2c-0.6-0.6-1.1-1.6-1.1-2.4c0-1.4,0.3-2.9,3.7-1
		c5.1,2.8,7.8,0.4,8.8-1.6H99.7z"/>
	<path class="st3" d="M120.4,20.6c0-0.5,0.1-1.1,0.1-1.6c0-9.8-6.7-17.7-14.9-17.7c-8.2,0-14.9,7.9-14.9,17.7c0,0.5,0,1.1,0.1,1.6
		H120.4z"/>
	<path class="st10" d="M120.4,20.6c0-0.5,0.1-1.1,0.1-1.6c0-9.8-6.7-17.7-14.9-17.7c-8.2,0-14.9,7.9-14.9,17.7c0,0.5,0,1.1,0.1,1.6
		H120.4z"/>
	<path class="st2" d="M120.4,20.6c0-0.5,0.1-1.1,0.1-1.6c0-9.8-6.7-17.7-14.9-17.7c-8.2,0-14.9,7.9-14.9,17.7c0,0.5,0,1.1,0.1,1.6
		H120.4z"/>
	<path class="st8" d="M131.2,39.9c-1,0-1.9-0.3-2.7-0.9c-0.2-0.2-0.4-0.4-0.4-0.7c0-0.3,0.1-0.6,0.3-0.8c0.5-0.4,1.2-0.9,1.7-1.2
		c-0.4-0.1-0.8-0.1-1.4-0.1c-0.4,0-0.8,0-1.3,0.1c-0.1,0-0.1,0-0.2,0c-0.5,0-0.7-0.3-0.8-0.4c-0.1-0.3-0.1-0.6,0.2-0.9l0,0l0.1,0
		c0.9-0.7,1.8-1.1,2.5-1.5c-0.2,0-0.5,0-0.7-0.1c-0.4,0-0.7-0.2-0.8-0.6c-0.1-0.3,0-0.7,0.2-1c0.8-0.8,1.9-1.2,3-1.3
		c0.1,0,0.1,0,0.2,0c2.5,0,4.6,2.1,4.7,4.6c0,1.3-0.5,2.5-1.3,3.3C133.7,39.4,132.5,39.9,131.2,39.9"/>
	<path class="st0" d="M131.2,31.2c2.2,0,4,1.8,4.1,4c0,2.3-1.8,4.1-4.1,4.1c-0.9,0-1.7-0.3-2.3-0.7c-0.2-0.1-0.2-0.4,0-0.5
		c1.2-1,2.7-1.9,2.7-1.9c-0.7-0.4-1.8-0.5-2.8-0.5c-0.5,0-1,0-1.3,0.1c0,0-0.1,0-0.1,0c-0.4,0-0.3-0.2-0.2-0.3c2.2-1.6,4.1-2,4.1-2
		c-0.8-0.4-1.8-0.6-2.7-0.6c-0.3,0-0.4-0.3-0.2-0.5c0.7-0.7,1.6-1.1,2.6-1.1C131.1,31.2,131.1,31.2,131.2,31.2 M131.2,30
		c-0.1,0-0.2,0-0.2,0c-1.3,0.1-2.5,0.6-3.4,1.5c-0.4,0.4-0.6,1-0.4,1.6c0.1,0.2,0.2,0.4,0.4,0.6c-0.4,0.2-0.8,0.5-1.2,0.8l-0.1,0.1
		l-0.1,0.1c-0.4,0.4-0.5,1-0.3,1.5c0.1,0.2,0.4,0.8,1.4,0.8c0.1,0,0.1,0,0.2,0c0.3,0,0.6,0,0.8,0c-0.1,0.1-0.2,0.1-0.3,0.2
		c-0.4,0.3-0.6,0.8-0.6,1.2c0,0.5,0.3,0.9,0.6,1.2c0.9,0.6,1.9,1,3,1c1.4,0,2.8-0.6,3.8-1.6c1-1,1.5-2.4,1.5-3.8
		C136.4,32.3,134.1,30,131.2,30z"/>
	<path class="st0" d="M132.1,29.6c0,0.7-0.7,1.3-1.5,1.3c-0.8,0-1.5-0.6-1.5-1.3c0-0.7,0.7-1.3,1.5-1.3
		C131.4,28.3,132.1,28.8,132.1,29.6"/>
	<path class="st8" d="M113.3,43.6c-1.3,0-2.4-0.5-3.3-1.4c-0.9-0.9-1.4-2.1-1.3-3.3c0-2.5,2.2-4.6,4.7-4.6c0.1,0,0.1,0,0.2,0
		c1.1,0.1,2.2,0.5,3,1.3c0.3,0.2,0.3,0.6,0.2,1c-0.1,0.3-0.4,0.6-0.8,0.6c-0.3,0-0.5,0-0.7,0.1c0.7,0.3,1.6,0.8,2.5,1.5l0.1,0l0,0
		c0.2,0.3,0.3,0.6,0.2,0.9c-0.1,0.2-0.3,0.4-0.8,0.4c0,0-0.1,0-0.2,0c-0.5,0-0.9-0.1-1.3-0.1c-0.5,0-1,0-1.4,0.1
		c0.5,0.3,1.1,0.8,1.7,1.2c0.2,0.2,0.4,0.5,0.3,0.8c0,0.3-0.2,0.6-0.4,0.7C115.2,43.3,114.2,43.6,113.3,43.6"/>
	<path class="st0" d="M113.3,34.8c0.1,0,0.1,0,0.2,0c1,0,1.9,0.5,2.6,1.1c0.2,0.2,0.1,0.5-0.2,0.5c-0.9,0-1.8,0.2-2.7,0.6
		c0,0,1.9,0.4,4.1,2c0.1,0.1,0.2,0.3-0.2,0.3c0,0-0.1,0-0.1,0c-0.4,0-0.8-0.1-1.3-0.1c-1,0-2.1,0.1-2.8,0.5c0,0,1.6,0.9,2.7,1.9
		c0.2,0.1,0.2,0.4,0,0.5c-0.7,0.5-1.5,0.7-2.3,0.7c-2.3,0-4.1-1.9-4.1-4.1C109.2,36.6,111.1,34.8,113.3,34.8 M113.3,33.6L113.3,33.6
		c-2.9,0-5.2,2.3-5.3,5.2c0,1.4,0.5,2.8,1.5,3.8c1,1,2.3,1.6,3.8,1.6c1.1,0,2.1-0.3,3-1c0.4-0.3,0.6-0.7,0.7-1.2
		c0-0.5-0.2-0.9-0.6-1.2c-0.1-0.1-0.2-0.1-0.3-0.2c0.3,0,0.5,0,0.8,0c0.1,0,0.1,0,0.2,0c0.9,0,1.3-0.6,1.4-0.8
		c0.2-0.5,0.1-1.1-0.3-1.5l-0.1-0.1l-0.1-0.1c-0.4-0.3-0.8-0.6-1.2-0.8c0.2-0.2,0.3-0.4,0.4-0.6c0.2-0.6,0.1-1.2-0.4-1.6
		c-0.9-0.9-2.1-1.4-3.4-1.5C113.4,33.6,113.4,33.6,113.3,33.6z"/>
	<path class="st0" d="M112.4,33.2c0,0.7,0.7,1.3,1.5,1.3c0.8,0,1.5-0.6,1.5-1.3c0-0.7-0.7-1.3-1.5-1.3
		C113.1,31.9,112.4,32.5,112.4,33.2"/>
	<polygon class="st4" points="80.6,55.3 84.1,62.7 152.3,45.5 	"/>
	<path class="st11" d="M110.8,6.6c0,1.9-2.7,3.5-6,3.5c-3.3,0-6-1.6-6-3.5c0-1.9,2.7-3.5,6-3.5C108.1,3.1,110.8,4.7,110.8,6.6"/>
	<path class="st12" d="M100.3,2.3c0,0,11.1,0,11.4,18.2"/>
	<path class="st1" d="M99.2,20.6c0,2.6,2.5,4.7,5.6,4.7c3.1,0,5.6-2.1,5.6-4.7c0-2.6-2.5-4.7-5.6-4.7
		C101.7,15.8,99.2,17.9,99.2,20.6"/>
	<path class="st2" d="M99.2,20.6c0,2.6,2.5,4.7,5.6,4.7c3.1,0,5.6-2.1,5.6-4.7c0-2.6-2.5-4.7-5.6-4.7
		C101.6,15.8,99.2,17.9,99.2,20.6z"/>
	<path class="st5" d="M102,20.3c0,2.3,1.9,4.1,4.1,4.1c2.3,0,4.1-1.9,4.1-4.1c0-2.3-1.9-4.1-4.1-4.1C103.9,16.2,102,18,102,20.3"/>
	<path class="st6" d="M102,20.3c0,2.3,1.9,4.1,4.1,4.1c2.3,0,4.1-1.9,4.1-4.1c0-2.3-1.9-4.1-4.1-4.1C103.9,16.2,102,18,102,20.3z"/>
	<path class="st12" d="M102,20.3c0,2.3,1.9,4.1,4.1,4.1c2.3,0,4.1-1.9,4.1-4.1c0-2.3-1.9-4.1-4.1-4.1C103.9,16.2,102,18,102,20.3z"
		/>
	<path class="st1" d="M111.1,18.4c0,2.6,2.5,4.7,5.6,4.7c3.1,0,5.6-2.1,5.6-4.7c0-2.6-2.5-4.7-5.6-4.7
		C113.5,13.7,111.1,15.8,111.1,18.4"/>
	<path class="st1" d="M111.1,18.4c0,2.6,2.5,4.7,5.6,4.7c3.1,0,5.6-2.1,5.6-4.7c0-2.6-2.5-4.7-5.6-4.7
		C113.5,13.7,111.1,15.8,111.1,18.4z"/>
	<path class="st2" d="M111.1,18.4c0,2.6,2.5,4.7,5.6,4.7c3.1,0,5.6-2.1,5.6-4.7c0-2.6-2.5-4.7-5.6-4.7
		C113.5,13.7,111.1,15.8,111.1,18.4z"/>
	<path class="st5" d="M113.9,18.2c0,2.3,1.9,4.1,4.1,4.1c2.3,0,4.1-1.9,4.1-4.1c0-2.3-1.9-4.1-4.1-4.1
		C115.8,14,113.9,15.9,113.9,18.2"/>
	<path class="st6" d="M113.9,18.2c0,2.3,1.9,4.1,4.1,4.1c2.3,0,4.1-1.9,4.1-4.1c0-2.3-1.9-4.1-4.1-4.1
		C115.8,14,113.9,15.9,113.9,18.2z"/>
	<path class="st12" d="M113.9,18.2c0,2.3,1.9,4.1,4.1,4.1c2.3,0,4.1-1.9,4.1-4.1c0-2.3-1.9-4.1-4.1-4.1
		C115.8,14,113.9,15.9,113.9,18.2z"/>
	<path class="st4" d="M118,14.6c-0.1,0-0.1,0-0.2,0c1.6,0.7,2.6,2.2,2.6,4c0,1-0.4,1.9-1,2.7c1.2-0.6,2-1.8,2-3.2
		C121.6,16.2,120,14.6,118,14.6"/>
	<path class="st4" d="M106.2,16.8c-0.1,0-0.1,0-0.2,0c1.6,0.7,2.6,2.2,2.6,4c0,1-0.4,1.9-1,2.7c1.2-0.6,2-1.8,2-3.2
		C109.7,18.4,108.1,16.8,106.2,16.8"/>
	<path class="st13" d="M109.6,28.7c2.2-0.4,3.9-1.4,4.1-0.3c0.2,1.1-1.3,3.2-3.5,3.6c-2.2,0.4-4.4-0.9-4.6-2
		C105.5,28.8,107.4,29.1,109.6,28.7"/>
</g>
</svg>
