<?xml version="1.0" encoding="utf-8"?>
<!-- Generator: Adobe Illustrator 23.1.0, SVG Export Plug-In . SVG Version: 6.00 Build 0)  -->
<svg version="1.1" id="Слой_1" xmlns="http://www.w3.org/2000/svg" xmlns:xlink="http://www.w3.org/1999/xlink" x="0px" y="0px"
	 viewBox="0 0 1920 1080" style="enable-background:new 0 0 1920 1080;" xml:space="preserve">
<style type="text/css">
	.st0{fill:#D59902;}
	.st1{fill:#B0B1B2;}
	.st2{fill:#EBEBEB;}
	.st3{fill:#FFFFFF;}
	.st4{fill:#D8D9D9;}
	.st5{fill:#6E6E6E;}
	.st6{fill:#E1B007;}
	.st7{fill:#F5C213;}
	.st8{fill:#C5C5C6;}
	.st9{fill:none;stroke:#FFFFFF;stroke-width:1.26;stroke-miterlimit:10;}
	.st10{fill:#9B9B9B;}
	.st11{fill-rule:evenodd;clip-rule:evenodd;fill:#D59902;}
	.st12{fill-rule:evenodd;clip-rule:evenodd;fill:#B0B1B2;}
</style>
<g>
	<rect x="1276.4" y="536.7" class="st0" width="221.9" height="478.8"/>
	<polygon class="st1" points="1274,536.7 1498.3,536.7 1538.4,501.4 1274,501.4 	"/>
	<polygon class="st2" points="1284.1,436.2 1553.8,501.4 1274,501.4 	"/>
	<rect x="1325.7" y="583.4" class="st1" width="81.9" height="111.8"/>
	<path class="st3" d="M1411.9,699.6h-90.6V579h90.6V699.6z M1330.1,690.9h73.1V587.8h-73.1V690.9z"/>
	<rect x="1360" y="583.4" class="st3" width="9.6" height="111.8"/>
	<rect x="1325.7" y="614.8" class="st3" width="81.9" height="9.9"/>
	<rect x="1313" y="695.3" class="st3" width="106.9" height="14"/>
	<rect x="1325.7" y="823.4" class="st1" width="81.9" height="111.8"/>
	<path class="st3" d="M1411.9,939.6h-90.6V819h90.6V939.6z M1330.1,930.8h73.1V827.7h-73.1V930.8z"/>
	<rect x="1325.7" y="854.7" class="st3" width="81.9" height="9.9"/>
	<rect x="1313" y="935.2" class="st3" width="106.9" height="14"/>
	<rect x="420.8" y="536.7" class="st0" width="221.9" height="478.8"/>
	<polygon class="st1" points="645.2,536.7 420.8,536.7 380.8,501.4 645.2,501.4 	"/>
	<polygon class="st2" points="635.1,436.2 365.3,501.4 645.2,501.4 	"/>
	<rect x="511.6" y="583.4" class="st1" width="81.9" height="111.8"/>
	<path class="st3" d="M597.8,699.6h-90.6V579h90.6V699.6z M516,690.9h73.1V587.8H516V690.9z"/>
	<rect x="549.6" y="583.4" class="st3" width="9.6" height="111.8"/>
	<rect x="511.6" y="614.8" class="st3" width="81.9" height="9.9"/>
	<rect x="499.3" y="695.3" class="st3" width="106.9" height="14"/>
	<rect x="511.6" y="823.4" class="st1" width="81.9" height="111.8"/>
	<path class="st3" d="M597.8,939.6h-90.6V819h90.6V939.6z M516,930.8h73.1V827.7H516V930.8z"/>
	<rect x="511.6" y="854.7" class="st3" width="81.9" height="9.9"/>
	<rect x="499.3" y="935.2" class="st3" width="106.9" height="14"/>
	<path class="st1" d="M546.2,1019.2v35.5c0,0-7.5-1.6,3.9,3.1c11.5,4.7,62.8,9.1,62.8,9.1l87,5.2l51.4,1.9l107.6,2.3h43.3l29.3,0.5
		l43.7-0.1l59.6-0.5l56-0.9l88.3-2.6l65.4-3.2c0,0,50.7-3.9,52.2-4c1.5-0.1,44.5-6.8,44.5-6.8l6.4-4v-35.5H827.2H546.2z"/>
	<path class="st4" d="M1347.6,1019.2c0,12.2-179.4,22.2-400.7,22.2c-221.3,0-400.7-9.9-400.7-22.2c0-12.2,179.4-22.2,400.7-22.2
		C1168.2,997,1347.6,1006.9,1347.6,1019.2"/>
	<path class="st1" d="M1316.5,518.8c0,50.3-159.9,91.1-357.2,91.1c-197.3,0-357.2-40.8-357.2-91.1c0-50.3,159.9-91.1,357.2-91.1
		C1156.5,427.8,1316.5,468.5,1316.5,518.8"/>
	<rect x="638.1" y="767.6" class="st0" width="635.9" height="235.9"/>
	<rect x="1122.9" y="822.1" class="st5" width="72.4" height="121.8"/>
	<path class="st3" d="M1199.7,948.2h-81.2V817.7h81.2V948.2z M1127.2,939.5h63.7v-113h-63.7V939.5z"/>
	<rect x="1122.9" y="858.5" class="st3" width="72.4" height="11.4"/>
	<rect x="1153.4" y="869.8" class="st3" width="13.2" height="74"/>
	<rect x="728.1" y="822.1" class="st5" width="72.4" height="121.8"/>
	<path class="st3" d="M804.9,948.2h-81.2V817.7h81.2V948.2z M732.5,939.5h63.7v-113h-63.7V939.5z"/>
	<rect x="728.1" y="858.5" class="st3" width="72.4" height="11.4"/>
	<rect x="756.8" y="869.8" class="st3" width="13.2" height="74"/>
	<polygon class="st6" points="1280.9,756.9 642.8,756.9 642.8,503.3 1002.4,489.9 1280.9,510.2 	"/>
	<path class="st2" d="M756.9,383.4c0,0,123.9-92.2,203.8-92.4c82.3-0.2,182.5,88.2,182.5,88.2L756.9,383.4z"/>
	<path class="st7" d="M958.7,396.4c157,0,290.3,26.4,338.5,63.2c0-0.6,0.1-1.2,0.1-1.8c0-51.6-150.7-93.5-336.6-93.5
		c-184.7,0-334.6,41.3-336.6,92.5C675.3,421.5,805.8,396.4,958.7,396.4"/>
	<path class="st8" d="M958.7,427.8c177.1,0,324.2,33.6,352.7,77.8c3.3-5.1,5-10.3,5-15.7c0-51.6-160.2-93.5-357.7-93.5
		c-197.6,0-357.7,41.9-357.7,93.5c0,5.3,1.7,10.6,5,15.7C634.6,461.4,781.6,427.8,958.7,427.8"/>
	<path class="st7" d="M642,552.5l30.9-20.4c0,0,31.1-15.3,156.3-30.9h251.9l140.4,25.7c0,0,40.4,13.4,56.9,29.8v-49.9
		c0,0-19.9-16.5-58.9-29.5c0,0-85.6-20.7-139.1-25.1H829.2c0,0-114.5,17.6-159.1,33.3l-27.4,15.7L642,552.5z"/>
	<rect x="882.7" y="510.2" class="st1" width="155.2" height="144.6"/>
	<path class="st3" d="M1042.2,659.2H878.3V505.8h163.9V659.2z M887.1,650.5h146.4V514.6H887.1V650.5z"/>
	<rect x="882.7" y="555.7" class="st3" width="155.2" height="9.2"/>
	<rect x="957.9" y="510.2" class="st3" width="7" height="45.5"/>
	<rect x="933" y="564.9" class="st3" width="7" height="89.9"/>
	<rect x="983" y="564.9" class="st3" width="7" height="89.9"/>
	<rect x="814.4" y="749.9" class="st7" width="69.2" height="122.8"/>
	<rect x="1034.8" y="749.9" class="st7" width="69.2" height="122.8"/>
	<rect x="1160.1" y="749.9" class="st7" width="64.3" height="120"/>
	<polygon class="st7" points="1278.8,865.8 1231.6,865.8 1231.6,749.9 1278.8,756.9 	"/>
	<rect x="906.5" y="818.9" class="st3" width="114.1" height="178.1"/>
	<rect x="912.3" y="827.8" class="st5" width="102.4" height="14.9"/>
	<rect x="912.3" y="851.1" class="st5" width="32.5" height="78.1"/>
	<rect x="957.8" y="851.1" class="st5" width="56.9" height="78.1"/>
	<rect x="958.5" y="939" class="st5" width="56.2" height="49.8"/>
	<rect x="912.3" y="939" class="st5" width="32.5" height="49.8"/>
	<rect x="699.1" y="749.9" class="st7" width="64.3" height="120"/>
	<polygon class="st7" points="644.2,865.8 691.8,865.8 691.8,749.9 644.2,756.9 	"/>
	<polygon class="st1" points="1194.6,670.9 1103.9,659.6 1103.9,515 1194.6,530.6 	"/>
	<path class="st3" d="M1198,674.7l-97.3-12.1V511l97.3,16.8V674.7z M1107.3,656.7l84,10.5V533.4l-84-14.5V656.7z"/>
	<polygon class="st3" points="1194.6,579.8 1103.9,566.5 1103.9,557.3 1194.6,570.6 	"/>
	<rect x="1147.9" y="523.1" class="st3" width="4.1" height="45.5"/>
	<rect x="1133.4" y="566.5" class="st3" width="4.1" height="96.2"/>
	<rect x="1162.6" y="566.5" class="st3" width="4.1" height="99"/>
	<rect x="1054.6" y="498.3" class="st7" width="49.3" height="236.2"/>
	<polygon class="st1" points="731.2,670.9 821.9,659.6 821.9,515 729.5,530.9 	"/>
	<path class="st3" d="M728,674.7l-1.8-146.6l99.1-17.1v151.5L728,674.7z M732.9,533.7l1.6,133.5l84-10.5V518.9L732.9,533.7z"/>
	<polygon class="st3" points="731.2,579.8 821.9,566.5 821.9,557.3 731.2,570.6 	"/>
	<rect x="773.9" y="523.1" class="st3" width="4.1" height="45.5"/>
	<rect x="788.4" y="566.5" class="st3" width="4.1" height="96.2"/>
	<rect x="759.2" y="566.5" class="st3" width="4.1" height="99"/>
	<rect x="814.4" y="498.3" class="st7" width="49.3" height="236.2"/>
	<polygon class="st1" points="1269.2,693 1240.9,682 1240.9,542.3 1269.2,557.4 	"/>
	<polygon class="st9" points="1269.2,693 1240.9,682 1240.9,542.3 1269.2,557.4 	"/>
	<polygon class="st3" points="1269.2,605 1240.9,592.1 1240.9,583.2 1269.2,596 	"/>
	<rect x="1254.6" y="550.2" class="st3" width="1.3" height="43.9"/>
	<rect x="1250.1" y="592.1" class="st3" width="1.3" height="92.9"/>
	<rect x="1259.2" y="592.1" class="st3" width="1.3" height="95.7"/>
	<rect x="1204.1" y="505.6" class="st7" width="40.4" height="252.9"/>
	<polygon class="st1" points="651.7,693 680.1,682 680.1,542.3 651.7,557.4 	"/>
	<path class="st3" d="M649.9,695.6V556.3l32-17v144L649.9,695.6z M653.6,558.5v131.8l24.7-9.5V545.4L653.6,558.5z"/>
	<polygon class="st3" points="651.7,605 680.1,592.1 680.1,583.2 651.7,596 	"/>
	<rect x="665" y="550.2" class="st3" width="1.3" height="43.9"/>
	<rect x="669.6" y="592.1" class="st3" width="1.3" height="92.9"/>
	<rect x="660.4" y="592.1" class="st3" width="1.3" height="95.7"/>
	<rect x="673.9" y="505.6" class="st7" width="40.4" height="252.9"/>
	<path class="st8" d="M885.8,872.7h-73.5v154.8h0.2c-0.1,0.1-0.2,0.2-0.2,0.3c0,2.2,16.4,4,36.7,4c20.3,0,36.7-1.8,36.7-4
		c0-0.1-0.1-0.2-0.2-0.3h0.2V872.7z"/>
	<path class="st8" d="M1106.1,872.7h-73.5v154.8h0.1c-0.1,0.1-0.1,0.2-0.1,0.3c0,2.2,16.4,4,36.7,4c20.3,0,36.7-1.8,36.7-4
		c0-0.1-0.1-0.2-0.2-0.3h0.2V872.7z"/>
	<path class="st8" d="M1226.3,869.8h-68.2v151.2h0.1c-0.1,0.1-0.1,0.2-0.1,0.3c0,2.1,15.3,3.9,34.1,3.9c18.8,0,34.1-1.7,34.1-3.9
		c0-0.1-0.1-0.2-0.1-0.3h0.1V869.8z"/>
	<path class="st8" d="M1280.7,865.8h-50.5v146.1h0.1c-0.1,0.1-0.1,0.2-0.1,0.3c0,2.1,11.3,3.8,25.2,3.8c13.9,0,25.3-1.7,25.3-3.8
		c0-0.1,0-0.2-0.1-0.3h0.1V865.8z"/>
	<path class="st8" d="M697.1,869.8h68.2v151.2h-0.1c0.1,0.1,0.1,0.2,0.1,0.3c0,2.1-15.3,3.9-34.1,3.9c-18.8,0-34.1-1.7-34.1-3.9
		c0-0.1,0.1-0.2,0.1-0.3h-0.1V869.8z"/>
	<path class="st8" d="M642.8,865.8h50.5v146.1h-0.1c0.1,0.1,0.1,0.2,0.1,0.3c0,2.1-11.3,3.8-25.3,3.8c-13.9,0-25.2-1.7-25.2-3.8
		c0-0.1,0-0.2,0.1-0.3h-0.1V865.8z"/>
	<rect x="872.7" y="749.9" class="st6" width="170.3" height="35.5"/>
	<polygon class="st6" points="1102.6,786.8 1181.2,788.9 1181.2,755 1104,748 	"/>
	<polygon class="st6" points="1223.3,793.2 1251.1,799 1251.1,763.9 1223.3,758.5 	"/>
	<polygon class="st6" points="820.9,786.7 742.2,788.9 742.2,753.7 819.5,746.5 	"/>
	<polygon class="st6" points="700.1,792.8 672.4,799 672.4,761.2 700.1,755.3 	"/>
	<rect x="814.4" y="734.5" class="st10" width="288.2" height="15.4"/>
	<polygon class="st1" points="1223.3,758.5 1102.6,749.9 1102.6,734.5 1223.3,743 	"/>
	<polygon class="st1" points="693.6,758.5 814.4,749.9 814.4,734.5 693.6,743 	"/>
	<polygon class="st8" points="693.6,743 638.1,756.9 638.1,769.4 693.6,758.5 	"/>
	<polygon class="st8" points="1223.3,743 1281,756.9 1281,769.4 1223.3,758.5 	"/>
	<path class="st8" d="M1316.5,518.8l-0.2-32l-22.6,1.5C1293.7,488.4,1313.9,501.1,1316.5,518.8"/>
	<path class="st8" d="M602.1,516.9l-1.1-27l5.7,2.8l4.7,6.2C611.3,498.9,602.3,507.8,602.1,516.9"/>
	<rect x="1490.1" y="725.2" class="st11" width="380.4" height="288.6"/>
	<rect x="1498.3" y="710.7" class="st12" width="409.4" height="17.7"/>
	<polygon class="st2" points="1498.3,659.8 1870.5,659.8 1920,717.4 1498.3,717.4 	"/>
	<rect x="1536.3" y="823.4" class="st1" width="81.9" height="111.8"/>
	<path class="st3" d="M1622.6,939.6H1532V819h90.6V939.6z M1540.7,930.8h73.1V827.7h-73.1V930.8z"/>
	<rect x="1536.3" y="854.7" class="st3" width="81.9" height="9.9"/>
	<rect x="1523.6" y="935.2" class="st3" width="106.9" height="14"/>
	<rect x="1734.7" y="823.4" class="st1" width="81.9" height="111.8"/>
	<path class="st3" d="M1820.9,939.6h-90.6V819h90.6V939.6z M1739,930.8h73.1V827.7H1739V930.8z"/>
	<rect x="1734.7" y="854.7" class="st3" width="81.9" height="9.9"/>
	<rect x="1722" y="935.2" class="st3" width="106.9" height="14"/>
	<rect x="49.5" y="725.2" class="st11" width="380.4" height="288.6"/>
	<rect x="12.2" y="710.8" class="st12" width="409.4" height="17.7"/>
	<polygon class="st2" points="421.7,659.9 49.5,659.9 0,717.5 421.7,717.5 	"/>
	<rect x="301.8" y="823.4" class="st1" width="81.9" height="111.8"/>
	<path class="st3" d="M297.4,939.6H388V819h-90.6V939.6z M379.3,930.9h-73.1V827.8h73.1V930.9z"/>
	<rect x="301.8" y="854.8" class="st3" width="81.9" height="9.9"/>
	<rect x="289.5" y="935.3" class="st3" width="106.9" height="14"/>
	<rect x="103.5" y="823.4" class="st1" width="81.9" height="111.8"/>
	<path class="st3" d="M99.1,939.6h90.6V819H99.1V939.6z M181,930.9h-73.1V827.8H181V930.9z"/>
	<rect x="103.5" y="854.8" class="st3" width="81.9" height="9.9"/>
	<rect x="91.1" y="935.3" class="st3" width="106.9" height="14"/>
</g>
</svg>
