<?xml version="1.0" encoding="utf-8"?>
<!-- Generator: Adobe Illustrator 23.1.0, SVG Export Plug-In . SVG Version: 6.00 Build 0)  -->
<svg version="1.1" id="Слой_1" xmlns="http://www.w3.org/2000/svg" xmlns:xlink="http://www.w3.org/1999/xlink" x="0px" y="0px"
	 viewBox="0 0 127.2 76.9" style="enable-background:new 0 0 127.2 76.9;" xml:space="preserve">
<style type="text/css">
	.st0{fill:#FFFFFF;}
	.st1{fill:none;stroke:#3B3A39;stroke-width:2.4041;stroke-miterlimit:10;}
	.st2{fill:#1C989E;}
	.st3{fill:#DFB007;}
	.st4{fill:#59C0D0;}
	.st5{fill:#F6C30B;}
	.st6{fill:none;stroke:#3B3A39;stroke-width:2.4041;stroke-linecap:round;stroke-linejoin:round;stroke-miterlimit:10;}
	.st7{fill:#F5C3A6;}
	.st8{fill:none;stroke:#3B3A39;stroke-width:1.803;stroke-miterlimit:10;}
	.st9{fill:#914B00;}
	.st10{fill:#3B3A39;}
	.st11{fill:#A9662D;}
	.st12{fill:none;stroke:#3B3A39;stroke-width:1.2021;stroke-miterlimit:10;}
	.st13{fill-rule:evenodd;clip-rule:evenodd;fill:#3B3A39;}
</style>
<g>
	<path class="st0" d="M22.6,57.5l102.9-14.1c0.5-0.1,0.7-0.8,0.2-1L95,22.6c-0.1-0.1-0.3-0.1-0.5-0.1l-24.2,6.3
		c-0.6,0.2-0.6,1,0,1.1l33.8,7.9c0.7,0.2,0.5,1.1-0.1,1.1l-61.2-1.2c-0.1,0-0.3,0.1-0.4,0.2L22.2,56.5
		C21.8,56.9,22.1,57.6,22.6,57.5"/>
	<path class="st1" d="M22.6,57.5l102.9-14.1c0.5-0.1,0.7-0.8,0.2-1L95,22.6c-0.1-0.1-0.3-0.1-0.5-0.1l-24.2,6.3
		c-0.6,0.2-0.6,1,0,1.1l33.8,7.9c0.7,0.2,0.5,1.1-0.1,1.1l-61.2-1.2c-0.1,0-0.3,0.1-0.4,0.2L22.2,56.6
		C21.8,56.9,22.1,57.6,22.6,57.5z"/>
	<path class="st2" d="M58.5,37.8c0,0,2-6,6.4-7.4c4.4-1.4,20.9-3.7,20.9-3.7c1.7,0.8,4.7,2.7,7.1,6.1c1.6,2.2,2.3,4.3,2.8,5.9
		C83.3,38.3,70.9,38,58.5,37.8"/>
	<path class="st3" d="M58.5,37.8c0,0,2-6,6.4-7.4c4.4-1.4,20.9-3.7,20.9-3.7c1.7,0.8,4.7,2.7,7.1,6.1c1.6,2.2,2.3,4.3,2.8,5.9
		C83.3,38.3,70.9,38,58.5,37.8z"/>
	<path class="st1" d="M58.5,37.8c0,0,2-6,6.4-7.4c4.4-1.4,20.9-3.7,20.9-3.7c1.7,0.8,4.7,2.7,7.1,6.1c1.6,2.2,2.3,4.3,2.8,5.9
		C83.3,38.3,70.9,38,58.5,37.8z"/>
	<path class="st4" d="M57.8,75.5l68.1-31.8c0.2-0.1,0.1-0.4-0.1-0.4l-80,11l9.6,20.3C55.8,75.6,56.9,76,57.8,75.5"/>
	<path class="st5" d="M57.8,75.5l68.1-31.8c0.2-0.1,0.1-0.4-0.1-0.4l-80,11l9.6,20.3C55.8,75.6,56.9,76,57.8,75.5z"/>
	<path class="st1" d="M57.8,75.5l68.1-31.8c0.2-0.1,0.1-0.4-0.1-0.4l-80,11l9.6,20.3C55.8,75.6,56.9,76,57.8,75.5z"/>
	<line class="st6" x1="24.9" y1="73.6" x2="32.1" y2="72.2"/>
	<line class="st6" x1="37" y1="71.1" x2="52.2" y2="67.9"/>
	<line class="st6" x1="1.2" y1="52.5" x2="8.4" y2="51.1"/>
	<line class="st6" x1="14.1" y1="50.1" x2="33" y2="46.5"/>
	<line class="st6" x1="24.7" y1="31.9" x2="40.3" y2="28.9"/>
	<line class="st6" x1="35.5" y1="15.8" x2="59.2" y2="11.2"/>
	<line class="st6" x1="26.6" y1="17.6" x2="31.6" y2="16.6"/>
	<path class="st7" d="M86.3,22.9c0,6.6-5.4,12-12,12c-6.6,0-12-5.4-12-12c0-6.6,5.4-12,12-12C80.9,10.9,86.3,16.3,86.3,22.9"/>
	<path class="st8" d="M86.3,22.9c0,6.6-5.4,12-12,12c-6.6,0-12-5.4-12-12c0-6.6,5.4-12,12-12C80.9,10.9,86.3,16.3,86.3,22.9z"/>
	<path class="st9" d="M66.7,21.3c0,0-4.3,6.7-10.7,8.2c-4.8,1.1-8.2-1.6-9.7-3.2c-0.6-0.6-1.1-1.6-1.1-2.4c0-1.4,0.3-2.9,3.7-1
		c5.1,2.8,7.8,0.4,8.8-1.6H66.7z"/>
	<path class="st1" d="M66.7,21.3c0,0-4.3,6.7-10.7,8.2c-4.8,1.1-8.2-1.6-9.7-3.2c-0.6-0.6-1.1-1.6-1.1-2.4c0-1.4,0.3-2.9,3.7-1
		c5.1,2.8,7.8,0.4,8.8-1.6H66.7z"/>
	<path class="st2" d="M87.4,20.6c0-0.5,0.1-1.1,0.1-1.6c0-9.8-6.7-17.7-14.9-17.7c-8.2,0-14.9,7.9-14.9,17.7c0,0.5,0,1.1,0.1,1.6
		H87.4z"/>
	<path class="st9" d="M87.4,20.6c0-0.5,0.1-1.1,0.1-1.6c0-9.8-6.7-17.7-14.9-17.7c-8.2,0-14.9,7.9-14.9,17.7c0,0.5,0,1.1,0.1,1.6
		H87.4z"/>
	<path class="st1" d="M87.4,20.6c0-0.5,0.1-1.1,0.1-1.6c0-9.8-6.7-17.7-14.9-17.7c-8.2,0-14.9,7.9-14.9,17.7c0,0.5,0,1.1,0.1,1.6
		H87.4z"/>
	<path class="st7" d="M98.2,39.9c-1,0-1.9-0.3-2.7-0.9c-0.2-0.2-0.4-0.4-0.4-0.7c0-0.3,0.1-0.6,0.3-0.8c0.5-0.4,1.2-0.9,1.7-1.2
		c-0.4-0.1-0.8-0.1-1.4-0.1c-0.4,0-0.8,0-1.3,0.1c-0.1,0-0.1,0-0.2,0c-0.5,0-0.7-0.3-0.8-0.4c-0.1-0.3-0.1-0.6,0.2-0.9l0,0l0.1,0
		c0.9-0.7,1.8-1.1,2.5-1.5c-0.2,0-0.5,0-0.7-0.1c-0.4,0-0.7-0.2-0.8-0.6c-0.1-0.3,0-0.7,0.2-1c0.8-0.8,1.9-1.2,3-1.3
		c0.1,0,0.1,0,0.2,0c2.5,0,4.6,2.1,4.7,4.6c0,1.3-0.5,2.5-1.3,3.3C100.7,39.4,99.5,39.9,98.2,39.9"/>
	<path class="st10" d="M98.2,31.2c2.2,0,4,1.8,4.1,4c0,2.3-1.8,4.1-4.1,4.1c-0.9,0-1.7-0.3-2.3-0.7c-0.2-0.1-0.2-0.4,0-0.5
		c1.2-1,2.7-1.9,2.7-1.9c-0.7-0.4-1.8-0.5-2.8-0.5c-0.5,0-1,0-1.3,0.1c0,0-0.1,0-0.1,0c-0.4,0-0.3-0.2-0.2-0.3c2.2-1.6,4.1-2,4.1-2
		c-0.8-0.4-1.8-0.6-2.7-0.6c-0.3,0-0.4-0.3-0.2-0.5c0.7-0.7,1.6-1.1,2.6-1.1C98.1,31.2,98.2,31.2,98.2,31.2 M98.2,30
		c-0.1,0-0.2,0-0.2,0c-1.3,0.1-2.5,0.6-3.4,1.5c-0.4,0.4-0.6,1-0.4,1.6c0.1,0.2,0.2,0.4,0.4,0.6c-0.4,0.2-0.8,0.5-1.2,0.8l-0.1,0.1
		l-0.1,0.1c-0.4,0.4-0.5,1-0.3,1.5c0.1,0.2,0.4,0.8,1.4,0.8c0.1,0,0.1,0,0.2,0c0.3,0,0.6,0,0.8,0c-0.1,0.1-0.2,0.1-0.3,0.2
		c-0.4,0.3-0.6,0.8-0.6,1.2c0,0.5,0.3,0.9,0.6,1.2c0.9,0.6,1.9,1,3,1c1.4,0,2.8-0.6,3.8-1.6c1-1,1.5-2.4,1.5-3.8
		C103.5,32.3,101.1,30,98.2,30z"/>
	<path class="st10" d="M99.1,29.6c0,0.7-0.7,1.3-1.5,1.3c-0.8,0-1.5-0.6-1.5-1.3c0-0.7,0.7-1.3,1.5-1.3
		C98.5,28.3,99.1,28.8,99.1,29.6"/>
	<path class="st7" d="M80.3,43.6c-1.3,0-2.4-0.5-3.3-1.4c-0.9-0.9-1.4-2.1-1.3-3.3c0-2.5,2.2-4.6,4.7-4.6c0.1,0,0.1,0,0.2,0
		c1.1,0.1,2.2,0.5,3,1.3c0.3,0.2,0.3,0.6,0.2,1c-0.1,0.3-0.4,0.6-0.8,0.6c-0.3,0-0.5,0-0.7,0.1c0.7,0.3,1.6,0.8,2.5,1.5l0.1,0l0,0
		c0.2,0.3,0.3,0.6,0.2,0.9c-0.1,0.2-0.3,0.4-0.8,0.4c0,0-0.1,0-0.2,0c-0.5,0-0.9-0.1-1.3-0.1c-0.5,0-1,0-1.4,0.1
		c0.5,0.3,1.1,0.8,1.7,1.2c0.2,0.2,0.4,0.5,0.3,0.8c0,0.3-0.2,0.6-0.4,0.7C82.2,43.3,81.3,43.6,80.3,43.6"/>
	<path class="st10" d="M80.3,34.8c0.1,0,0.1,0,0.2,0c1,0,1.9,0.5,2.6,1.1c0.2,0.2,0.1,0.5-0.2,0.5c-0.9,0-1.8,0.2-2.7,0.6
		c0,0,1.9,0.4,4.1,2c0.1,0.1,0.2,0.3-0.2,0.3c0,0-0.1,0-0.1,0c-0.4,0-0.8-0.1-1.3-0.1c-1,0-2.1,0.1-2.8,0.5c0,0,1.6,0.9,2.7,1.9
		c0.2,0.1,0.2,0.4,0,0.5C82,42.7,81.2,43,80.3,43c-2.3,0-4.1-1.9-4.1-4.1C76.3,36.6,78.1,34.8,80.3,34.8 M80.3,33.6L80.3,33.6
		c-2.9,0-5.2,2.3-5.3,5.2c0,1.4,0.5,2.8,1.5,3.8c1,1,2.3,1.6,3.8,1.6c1.1,0,2.1-0.3,3-1c0.4-0.3,0.6-0.7,0.7-1.2
		c0-0.5-0.2-0.9-0.6-1.2c-0.1-0.1-0.2-0.1-0.3-0.2c0.3,0,0.5,0,0.8,0c0.1,0,0.1,0,0.2,0c0.9,0,1.3-0.6,1.4-0.8
		c0.2-0.5,0.1-1.1-0.3-1.5l-0.1-0.1l-0.1-0.1c-0.4-0.3-0.8-0.6-1.2-0.8c0.2-0.2,0.3-0.4,0.4-0.6c0.2-0.6,0.1-1.2-0.4-1.6
		c-0.9-0.9-2.1-1.4-3.4-1.5C80.5,33.6,80.4,33.6,80.3,33.6z"/>
	<path class="st10" d="M79.4,33.2c0,0.7,0.7,1.3,1.5,1.3c0.8,0,1.5-0.6,1.5-1.3c0-0.7-0.7-1.3-1.5-1.3
		C80.1,31.9,79.4,32.5,79.4,33.2"/>
	<polygon class="st3" points="47.6,55.3 51.1,62.7 119.3,45.5 	"/>
	<path class="st11" d="M77.8,6.6c0,1.9-2.7,3.5-6,3.5c-3.3,0-6-1.6-6-3.5c0-1.9,2.7-3.5,6-3.5C75.1,3.1,77.8,4.7,77.8,6.6"/>
	<path class="st12" d="M67.3,2.3c0,0,11.1,0,11.4,18.2"/>
	<path class="st0" d="M66.2,20.6c0,2.6,2.5,4.7,5.6,4.7c3.1,0,5.6-2.1,5.6-4.7c0-2.6-2.5-4.7-5.6-4.7C68.7,15.8,66.2,17.9,66.2,20.6
		"/>
	<path class="st1" d="M66.2,20.6c0,2.6,2.5,4.7,5.6,4.7c3.1,0,5.6-2.1,5.6-4.7c0-2.6-2.5-4.7-5.6-4.7C68.7,15.8,66.2,17.9,66.2,20.6
		z"/>
	<path class="st4" d="M69,20.3c0,2.3,1.9,4.1,4.1,4.1c2.3,0,4.1-1.9,4.1-4.1c0-2.3-1.9-4.1-4.1-4.1C70.9,16.2,69,18,69,20.3"/>
	<path class="st5" d="M69,20.3c0,2.3,1.9,4.1,4.1,4.1c2.3,0,4.1-1.9,4.1-4.1c0-2.3-1.9-4.1-4.1-4.1C70.9,16.2,69,18,69,20.3z"/>
	<path class="st12" d="M69,20.3c0,2.3,1.9,4.1,4.1,4.1c2.3,0,4.1-1.9,4.1-4.1c0-2.3-1.9-4.1-4.1-4.1C70.9,16.2,69,18,69,20.3z"/>
	<path class="st0" d="M78.1,18.4c0,2.6,2.5,4.7,5.6,4.7c3.1,0,5.6-2.1,5.6-4.7c0-2.6-2.5-4.7-5.6-4.7C80.6,13.7,78.1,15.8,78.1,18.4
		"/>
	<path class="st0" d="M78.1,18.4c0,2.6,2.5,4.7,5.6,4.7c3.1,0,5.6-2.1,5.6-4.7c0-2.6-2.5-4.7-5.6-4.7C80.6,13.7,78.1,15.8,78.1,18.4
		z"/>
	<path class="st1" d="M78.1,18.4c0,2.6,2.5,4.7,5.6,4.7c3.1,0,5.6-2.1,5.6-4.7c0-2.6-2.5-4.7-5.6-4.7C80.6,13.7,78.1,15.8,78.1,18.4
		z"/>
	<path class="st4" d="M80.9,18.2c0,2.3,1.9,4.1,4.1,4.1c2.3,0,4.1-1.9,4.1-4.1c0-2.3-1.9-4.1-4.1-4.1C82.8,14,80.9,15.9,80.9,18.2"
		/>
	<path class="st5" d="M80.9,18.2c0,2.3,1.9,4.1,4.1,4.1c2.3,0,4.1-1.9,4.1-4.1c0-2.3-1.9-4.1-4.1-4.1C82.8,14,80.9,15.9,80.9,18.2z"
		/>
	<path class="st12" d="M80.9,18.2c0,2.3,1.9,4.1,4.1,4.1c2.3,0,4.1-1.9,4.1-4.1c0-2.3-1.9-4.1-4.1-4.1C82.8,14,80.9,15.9,80.9,18.2z
		"/>
	<path class="st3" d="M85.1,14.6c-0.1,0-0.1,0-0.2,0c1.6,0.7,2.6,2.2,2.6,4c0,1-0.4,1.9-1,2.7c1.2-0.6,2-1.8,2-3.2
		C88.6,16.2,87,14.6,85.1,14.6"/>
	<path class="st3" d="M73.2,16.8c-0.1,0-0.1,0-0.2,0c1.6,0.7,2.6,2.2,2.6,4c0,1-0.4,1.9-1,2.7c1.2-0.6,2-1.8,2-3.2
		C76.7,18.4,75.2,16.8,73.2,16.8"/>
	<path class="st13" d="M76.6,28.7c2.2-0.4,3.9-1.4,4.1-0.3c0.2,1.1-1.3,3.2-3.5,3.6c-2.2,0.4-4.4-0.9-4.6-2
		C72.5,28.8,74.4,29.1,76.6,28.7"/>
</g>
</svg>
