<?xml version="1.0" encoding="utf-8"?>
<!-- Generator: Adobe Illustrator 23.1.0, SVG Export Plug-In . SVG Version: 6.00 Build 0)  -->
<svg version="1.1" id="Слой_1" xmlns="http://www.w3.org/2000/svg" xmlns:xlink="http://www.w3.org/1999/xlink" x="0px" y="0px"
	 viewBox="0 0 193.2 51.4" style="enable-background:new 0 0 193.2 51.4;" xml:space="preserve">
<style type="text/css">
	.st0{fill:#3B3A39;}
</style>
<g>
	<path class="st0" d="M177.5,6.4v6h3c1.4,0,2.3-0.2,2.9-0.5c0.8-0.5,1.2-1.3,1.2-2.5c0-2-1.4-3-4.1-3H177.5z M177.5,17.9v7.3h3.5
		c1.5,0,2.6-0.2,3.3-0.6c1-0.5,1.4-1.5,1.4-2.9c0-1.6-0.5-2.7-1.4-3.2c-0.7-0.4-1.8-0.6-3.5-0.6H177.5z M175.3,31.2
		c-1.8,0-3-0.3-3.7-0.9c-0.7-0.6-1.1-1.8-1.1-3.5V5.4c0-1.8,0.4-3.1,1.1-3.8c0.7-0.7,2-1.1,3.8-1.1h5.7c2.8,0,5.1,0.6,7.1,1.7
		c2.4,1.4,3.5,3.4,3.5,6c0,3.3-1.2,5.6-3.6,6.8V15c1.8,0.6,3.1,1.4,3.9,2.5c0.8,1.1,1.2,2.6,1.2,4.5c0,3.1-1.1,5.5-3.3,7.1
		c-1.9,1.4-4.5,2.2-7.7,2.2H175.3z M139.4,15.9c0,2.5,0.6,4.6,1.7,6.3c1.3,1.9,3.2,2.9,5.6,2.9c2.4,0,4.3-1,5.6-2.9
		c1.2-1.7,1.7-3.8,1.7-6.3c0-2.6-0.5-4.8-1.6-6.4c-1.3-2-3.2-3-5.7-3c-2.5,0-4.4,1-5.7,3C140,11.2,139.4,13.3,139.4,15.9z M132,15.9
		c0-4.6,1.3-8.4,3.9-11.3c2.7-3,6.3-4.6,10.8-4.6c4.6,0,8.2,1.5,10.9,4.5c2.6,2.9,3.9,6.7,3.9,11.3c0,4.6-1.3,8.4-3.9,11.3
		c-2.7,3-6.3,4.5-10.9,4.5c-4.6,0-8.2-1.5-10.8-4.5C133.3,24.2,132,20.5,132,15.9z M116,6.2h-7.5c-1,0-1.6,0.6-1.6,1.9v17.2
		c0,4.2-2.1,6.2-6.2,6.2c-3.7,0-5.6-1.1-5.6-3.2c0-1.3,0.4-2.2,1.1-2.6c0.4-0.3,1.2-0.4,2.2-0.4c1,0,1.6-0.2,1.9-0.5
		c0.3-0.3,0.4-0.9,0.4-1.9V8.1c0-3,0.5-5.1,1.6-6.3c1.1-1.2,3.1-1.8,6.1-1.8h11c2.3,0,3.5,1.7,3.5,5v21.6c0,3.3-1.2,5-3.5,5
		c-1.5,0-2.4-0.5-3-1.5c-0.4-0.7-0.5-1.9-0.5-3.5V6.2z M75,7.6l-3.5,10.8h7L75,7.6L75,7.6z M75.2,0c2.5,0,4.2,1.4,5.2,4l7.8,22.1
		c0.3,1,0.5,1.7,0.5,2.2c0,0.9-0.3,1.7-1,2.3c-0.7,0.6-1.5,0.9-2.4,0.9c-1.8,0-3-1.1-3.7-3.3l-1.1-3.6H69.5l-1.3,3.9
		c-0.7,2-1.8,3.1-3.4,3.1c-1,0-1.8-0.3-2.4-0.9c-0.6-0.6-0.9-1.4-0.9-2.4c0-0.7,0.1-1.4,0.3-2l8-21.7C71,1.5,72.8,0,75.2,0z
		 M32.3,26.6V5c0-3.3,1.2-5,3.5-5c2.3,0,3.5,1.7,3.5,5v6.7l8.9-9.2C49.9,0.9,51.1,0,52.1,0c0.9,0,1.7,0.3,2.4,1
		c0.7,0.6,1.1,1.4,1.1,2.3c0,0.6-0.3,1.4-1,2.2c0,0-0.6,0.6-1.8,1.8l-7.1,7l9.4,10.6c1.2,1.3,1.8,2.5,1.8,3.4c0,0.8-0.3,1.6-1,2.3
		c-0.7,0.7-1.4,1-2.3,1c-1.1,0-2.4-0.8-3.8-2.4l-9.3-10.8l-1.2,1v7.2c0,3.3-1.2,5-3.5,5C33.5,31.6,32.3,29.9,32.3,26.6z M11.3,14.6
		h3.5V5C14.9,1.7,16,0,18.4,0c2.3,0,3.5,1.6,3.5,4.9v21.6c0,3.3-1.2,5-3.5,5c-2.3,0-3.5-1.7-3.5-5v-5.8h-4.7c-3.3,0-5.8-0.9-7.5-2.7
		C0.9,16.4,0,13.8,0,10.5V5C0,1.7,1.2,0,3.5,0C5.8,0,7,1.7,7,5v5.5c0,1.6,0.3,2.7,0.9,3.3C8.5,14.3,9.7,14.6,11.3,14.6z"/>
	<path class="st0" d="M140.5,47.7c-1.1,0-1.9-0.6-1.9-1.5c0-0.9,0.7-1.5,1.9-1.5h2.2v3H140.5z M137.5,51.1h1l2.1-2.8h2.1v2.8h0.8
		v-7.2h-3.1c-0.9,0-1.7,0.3-2.1,0.7c-0.4,0.3-0.5,0.9-0.5,1.4c0,1.2,0.8,1.9,2,2.1L137.5,51.1z M128.1,51.1h0.8l4.3-6v6h0.8v-7.2
		h-0.8l-4.3,6v-6h-0.8V51.1z M120.8,49.8v-4.7c1.8,0,2.8,0.8,2.8,2.4C123.6,49,122.6,49.8,120.8,49.8z M120,49.8
		c-1.8,0-2.8-0.8-2.8-2.4c0-1.5,1-2.4,2.8-2.4V49.8z M120,51.4h0.8v-0.8c2.3,0,3.6-1.2,3.6-3.1c0-1.9-1.3-3.1-3.6-3.1v-0.7H120v0.7
		c-2.3,0-3.6,1.2-3.6,3.1c0,1.9,1.3,3.1,3.6,3.1V51.4z M108,48.5l1.6-3.7l1.6,3.7H108z M106,51.1h0.8l0.9-1.9h3.9l0.8,1.9h0.9
		l-3.3-7.2h-0.8L106,51.1z M98.5,47.8v-3.2h1.8c1.2,0,1.9,0.5,1.9,1.6c0,1-0.8,1.6-2,1.6H98.5z M97.7,51.1h0.8v-2.5h1.7
		c1.5,0,2.8-0.8,2.8-2.4c0-1.4-1.1-2.3-2.7-2.3h-2.7V51.1z M89.5,51.1h0.8v-6.4h3.8v-0.7h-4.6V51.1z M82.1,50.5
		c-1.6,0-2.8-1.3-2.8-3c0-1.7,1.2-3,2.8-3c1.6,0,2.8,1.3,2.8,3C84.9,49.2,83.7,50.5,82.1,50.5z M82,51.2c2.2,0,3.7-1.7,3.7-3.7
		c0-2-1.5-3.7-3.7-3.7c-2.2,0-3.7,1.7-3.7,3.7C78.4,49.5,79.9,51.2,82,51.2z M68.9,51.1h0.8v-6.4h4v6.4h0.8v-7.2h-5.7V51.1z
		 M58.9,51.1h0.8l4.3-6v6h0.8v-7.2H64l-4.3,6v-6h-0.8V51.1z M52.1,51.1h0.8v-6.4h2.4v-0.7h-5.6v0.7h2.4V51.1z"/>
</g>
</svg>
