<?xml version="1.0" encoding="utf-8"?>
<!-- Generator: Adobe Illustrator 23.1.0, SVG Export Plug-In . SVG Version: 6.00 Build 0)  -->
<svg version="1.1" id="Слой_1" xmlns="http://www.w3.org/2000/svg" xmlns:xlink="http://www.w3.org/1999/xlink" x="0px" y="0px"
	 viewBox="0 0 1920 1080" style="enable-background:new 0 0 1920 1080;" xml:space="preserve">
<style type="text/css">
	.st0{fill:#568B56;}
	.st1{fill:#629B64;}
	.st2{fill:none;stroke:#4B3434;stroke-width:2.1353;stroke-miterlimit:10;}
	.st3{fill:#BEC0C9;}
</style>
<g>
	<path class="st0" d="M1360,895.7c0,41.6,33.6,75.3,75,75.3c41.4,0,75-33.7,75-75.3c0-41.6-33.6-75.3-75-75.3
		C1393.6,820.4,1360,854.1,1360,895.7"/>
	<path class="st1" d="M1510,895.7c0,13.6-3.6,26.3-9.8,37.3c-6.1,1.6-12.4,2.4-19,2.4c-41.4,0-75-33.7-75-75.3
		c0-13.6,3.6-26.3,9.8-37.3c6.1-1.6,12.4-2.4,19-2.4C1476.4,820.4,1510,854.1,1510,895.7"/>
	<path class="st1" d="M1379.5,959.4c1.7,13.8,15.5,23.4,30.8,21.5c15.3-1.9,26.3-14.7,24.5-28.5c-1.7-13.8-15.5-23.4-30.8-21.5
		C1388.7,932.8,1377.7,945.6,1379.5,959.4"/>
	<line class="st2" x1="1435" y1="920.7" x2="1435" y2="1017.8"/>
	<line class="st2" x1="1435" y1="991" x2="1412.5" y2="966.1"/>
	<line class="st2" x1="1435" y1="947.9" x2="1448" y2="933.6"/>
	<path class="st3" d="M1401.2,1050.1h79.8c0,0-5.7-38.2-39.9-38.2C1406.9,1011.9,1401.2,1050.1,1401.2,1050.1"/>
</g>
</svg>
